<svg xmlns="http://www.w3.org/2000/svg" xmlns:xlink="http://www.w3.org/1999/xlink" viewBox="0,0,256,256" width="240px" height="240px" fill-rule="nonzero"><defs><linearGradient x1="3.851" y1="2.596" x2="34.471" y2="33.216" gradientUnits="userSpaceOnUse" id="color-1"><stop offset="0" stop-color="#6d7479"></stop><stop offset="1" stop-color="#323538"></stop></linearGradient></defs><g fill="url(#color-1)" fill-rule="nonzero" stroke="none" stroke-width="1" stroke-linecap="butt" stroke-linejoin="miter" stroke-miterlimit="10" stroke-dasharray="" stroke-dashoffset="0" font-family="none" font-weight="none" font-size="none" text-anchor="none" style="mix-blend-mode: normal"><g transform="scale(5.33333,5.33333)"><path d="M33.244,25l-9.121,-12h1.18c0.84,0 1.631,0.392 2.139,1.061l7.059,9.287l7.059,-9.287c0.507,-0.669 1.298,-1.061 2.138,-1.061h1.18l-9.121,12l9.547,12.56h-1.18c-0.84,0 -1.631,-0.392 -2.139,-1.061l-7.485,-9.847l-7.485,9.847c-0.508,0.668 -1.299,1.061 -2.139,1.061h-1.18zM4,26v0.783c0,4.199 2.776,8.032 6.868,8.972c4.439,1.02 8.49,-1.247 10.228,-4.842c0.27,-0.558 0.832,-0.913 1.451,-0.913h1.028c-1.319,4.655 -5.616,8.059 -10.707,7.999c-6.091,-0.072 -10.868,-5.305 -10.868,-11.857v-0.142v-2v-0.716c0,-5.427 3.812,-10.273 9.171,-11.136c6.884,-1.109 12.829,4.177 12.829,10.852v3zM4,24h18v-1c0,-5.648 -5.202,-10.08 -11.076,-8.768c-4.12,0.921 -6.924,4.77 -6.924,9.478z"></path></g></g><g fill-opacity="0.85882" fill="#3d3b3b" fill-rule="nonzero" stroke="none" stroke-width="1" stroke-linecap="butt" stroke-linejoin="miter" stroke-miterlimit="10" stroke-dasharray="" stroke-dashoffset="0" font-family="none" font-weight="none" font-size="none" text-anchor="none" style="mix-blend-mode: normal"><g><path d="M171.85333,215.035v-26.25h7.81v26.25c0,2.41333 -0.53333,4.54333 -1.6,6.39c-1.06667,1.84667 -2.57333,3.27333 -4.52,4.28c-1.94,1.00667 -4.13333,1.51 -6.58,1.51v0c-4.01333,0 -7.14,-1.02 -9.38,-3.06c-2.24,-2.04 -3.36,-4.92333 -3.36,-8.65v0h7.87c0,1.85333 0.39,3.22333 1.17,4.11c0.78,0.88667 2.01333,1.33 3.7,1.33v0c1.49333,0 2.68,-0.51333 3.56,-1.54c0.88667,-1.02 1.33,-2.47667 1.33,-4.37zM201.12333,218.915v0c0,-0.92 -0.45333,-1.64667 -1.36,-2.18c-0.91333,-0.52667 -2.37667,-1 -4.39,-1.42v0c-6.7,-1.40667 -10.05,-4.25333 -10.05,-8.54v0c0,-2.5 1.03667,-4.58667 3.11,-6.26c2.07333,-1.67333 4.78667,-2.51 8.14,-2.51v0c3.57333,0 6.43333,0.84 8.58,2.52c2.14,1.68667 3.21,3.87333 3.21,6.56v0h-7.52c0,-1.07333 -0.35,-1.96333 -1.05,-2.67c-0.69333,-0.7 -1.77667,-1.05 -3.25,-1.05v0c-1.26667,0 -2.24667,0.28667 -2.94,0.86c-0.69333,0.57333 -1.04,1.30333 -1.04,2.19v0c0,0.83333 0.39333,1.50667 1.18,2.02c0.78667,0.50667 2.12,0.94667 4,1.32c1.87333,0.37333 3.45333,0.79667 4.74,1.27v0c3.97333,1.45333 5.96,3.97667 5.96,7.57v0c0,2.57333 -1.10333,4.65333 -3.31,6.24c-2.2,1.58667 -5.04667,2.38 -8.54,2.38v0c-2.36,0 -4.45667,-0.42 -6.29,-1.26c-1.82667,-0.84 -3.26333,-1.99333 -4.31,-3.46c-1.04,-1.46667 -1.56,-3.05 -1.56,-4.75v0h7.14c0.06667,1.33333 0.56,2.35667 1.48,3.07c0.92,0.71333 2.15333,1.07 3.7,1.07v0c1.44,0 2.53,-0.27333 3.27,-0.82c0.73333,-0.55333 1.1,-1.27 1.1,-2.15z"></path></g></g></svg>