<svg xmlns="http://www.w3.org/2000/svg" xmlns:xlink="http://www.w3.org/1999/xlink" viewBox="0,0,256,256" width="480px" height="480px" fill-rule="nonzero"><g fill="none" fill-rule="nonzero" stroke="none" stroke-width="1" stroke-linecap="butt" stroke-linejoin="miter" stroke-miterlimit="10" stroke-dasharray="" stroke-dashoffset="0" font-family="none" font-weight="none" font-size="none" text-anchor="none" style="mix-blend-mode: normal"><g transform="scale(5.33333,5.33333)"><path d="M17.204,19.122l-4.907,2.715c-0.184,0.101 -0.297,0.289 -0.297,0.492v5.433c0,0.203 0.113,0.39 0.297,0.492l4.908,2.717c0.183,0.101 0.41,0.101 0.593,0l4.907,-2.717c0.182,-0.102 0.295,-0.289 0.295,-0.492v-5.433c0,-0.203 -0.113,-0.39 -0.297,-0.492l-4.906,-2.715c-0.092,-0.051 -0.195,-0.076 -0.297,-0.076c-0.103,0 -0.205,0.025 -0.297,0.076M42.451,24.013l-0.818,0.452c-0.031,0.017 -0.049,0.048 -0.049,0.082v0.906c0,0.034 0.019,0.065 0.049,0.082l0.818,0.453c0.031,0.017 0.068,0.017 0.099,0l0.818,-0.453c0.03,-0.017 0.049,-0.048 0.049,-0.082v-0.906c0,-0.034 -0.019,-0.065 -0.05,-0.082l-0.818,-0.452c-0.015,-0.009 -0.032,-0.013 -0.049,-0.013c-0.017,0 -0.034,0.004 -0.049,0.013" fill="#388e3c"></path><path d="M35.751,13.364l-2.389,-1.333c-0.075,-0.042 -0.167,-0.041 -0.241,0.003c-0.074,0.044 -0.12,0.123 -0.12,0.209l-0.001,8.052l-2.203,-1.219c-0.092,-0.051 -0.195,-0.076 -0.297,-0.076c-0.102,0 -0.205,0.025 -0.297,0.076h0.001l-4.907,2.715c-0.184,0.101 -0.297,0.289 -0.297,0.491v5.433c0,0.203 0.113,0.39 0.297,0.492l4.908,2.717c0.183,0.101 0.41,0.101 0.593,0l4.907,-2.717c0.182,-0.101 0.295,-0.289 0.295,-0.492v-13.927c0,-0.176 -0.096,-0.338 -0.249,-0.424zM32.866,26.458l-2.23,1.235c-0.083,0.046 -0.186,0.046 -0.269,0l-2.231,-1.235c-0.085,-0.046 -0.136,-0.132 -0.136,-0.224v-2.47c0,-0.092 0.051,-0.177 0.135,-0.224l2.231,-1.234h-0.001c0.042,-0.023 0.088,-0.034 0.135,-0.034c0.047,0 0.093,0.012 0.135,0.034l2.23,1.234c0.084,0.047 0.135,0.133 0.135,0.225v2.47c0,0.091 -0.051,0.177 -0.134,0.223z" fill="#37474f"></path><path d="M17.204,19.122l-5.204,8.64c0,0.203 0.113,0.39 0.297,0.492l4.908,2.717c0.183,0.101 0.41,0.101 0.593,0l5.202,-8.642c0,-0.203 -0.113,-0.39 -0.297,-0.492l-4.906,-2.715c-0.092,-0.051 -0.195,-0.076 -0.297,-0.076c-0.103,0 -0.205,0.025 -0.297,0.076" fill="#2e7d32"></path><path d="M17.204,19.122l-4.907,2.715c-0.184,0.101 -0.297,0.289 -0.297,0.492l5.204,8.642c0.183,0.101 0.41,0.101 0.593,0l4.907,-2.717c0.183,-0.102 0.296,-0.289 0.296,-0.492l-5.203,-8.64c-0.092,-0.051 -0.195,-0.076 -0.297,-0.076c-0.103,0 -0.205,0.025 -0.297,0.076" fill="#4caf50"></path><path d="M47.703,21.791l-4.906,-2.715c-0.092,-0.051 -0.195,-0.076 -0.297,-0.076c-0.102,0 -0.205,0.025 -0.297,0.076h0.001l-4.907,2.715c-0.183,0.101 -0.297,0.293 -0.297,0.503v5.411c0,0.209 0.114,0.402 0.297,0.503l4.908,2.717c0.184,0.102 0.409,0.102 0.593,0l2.263,-1.253c0.207,-0.115 0.206,-0.412 -0.002,-0.526l-4.924,-2.687c-0.083,-0.047 -0.135,-0.134 -0.135,-0.228v-2.466c0,-0.092 0.05,-0.177 0.13,-0.221l2.235,-1.236h-0.001c0.042,-0.023 0.088,-0.034 0.135,-0.034c0.047,0 0.093,0.012 0.135,0.034l2.235,1.237c0.08,0.044 0.13,0.129 0.13,0.221v2.012c0,0.086 0.046,0.166 0.121,0.209c0.075,0.042 0.167,0.042 0.242,-0.001l2.398,-1.393c0.148,-0.086 0.24,-0.245 0.24,-0.417v-1.88c0,-0.211 -0.114,-0.404 -0.297,-0.505zM10.703,21.791l-4.906,-2.715c-0.092,-0.051 -0.195,-0.076 -0.297,-0.076c-0.102,0 -0.205,0.025 -0.297,0.076h0.001l-4.907,2.715c-0.183,0.101 -0.297,0.293 -0.297,0.503v7.465c0,0.086 0.046,0.166 0.121,0.209c0.075,0.042 0.167,0.042 0.242,-0.001l2.398,-1.393c0.148,-0.086 0.239,-0.245 0.239,-0.417v-4.393c0,-0.092 0.05,-0.177 0.13,-0.221l2.235,-1.236v0c0.042,-0.023 0.088,-0.034 0.135,-0.034c0.047,0 0.093,0.012 0.135,0.034l2.235,1.237c0.08,0.044 0.13,0.129 0.13,0.221v4.393c0,0.172 0.091,0.331 0.24,0.417l2.398,1.393c0.075,0.043 0.167,0.043 0.242,0.001c0.074,-0.044 0.12,-0.124 0.12,-0.21v-7.464c0,-0.21 -0.114,-0.403 -0.297,-0.504z" fill="#37474f"></path></g></g><g fill="#000000" fill-rule="nonzero" stroke="none" stroke-width="1" stroke-linecap="butt" stroke-linejoin="miter" stroke-miterlimit="10" stroke-dasharray="" stroke-dashoffset="0" font-family="none" font-weight="none" font-size="none" text-anchor="none" style="mix-blend-mode: normal"><g><path d="M110.675,206.145v-34.13h10.16v34.13c0,3.13333 -0.69333,5.90333 -2.08,8.31c-1.38667,2.4 -3.34667,4.25667 -5.88,5.57c-2.52667,1.30667 -5.38,1.96 -8.56,1.96v0c-5.21333,0 -9.27667,-1.32667 -12.19,-3.98c-2.91333,-2.65333 -4.37,-6.40333 -4.37,-11.25v0h10.23c0,2.41333 0.50667,4.19667 1.52,5.35c1.01333,1.14667 2.61667,1.72 4.81,1.72v0c1.94,0 3.48667,-0.66667 4.64,-2c1.14667,-1.32667 1.72,-3.22 1.72,-5.68zM148.735,211.185v0c0,-1.19333 -0.59333,-2.13667 -1.78,-2.83c-1.18667,-0.68667 -3.09,-1.3 -5.71,-1.84v0c-8.70667,-1.82667 -13.06,-5.53 -13.06,-11.11v0c0,-3.24667 1.34667,-5.96 4.04,-8.14c2.7,-2.17333 6.22667,-3.26 10.58,-3.26v0c4.65333,0 8.37333,1.09333 11.16,3.28c2.78667,2.18667 4.18,5.03 4.18,8.53v0h-9.79c0,-1.4 -0.45,-2.55667 -1.35,-3.47c-0.90667,-0.91333 -2.31667,-1.37 -4.23,-1.37v0c-1.64667,0 -2.92333,0.37333 -3.83,1.12c-0.9,0.74 -1.35,1.68667 -1.35,2.84v0c0,1.08667 0.51333,1.96 1.54,2.62c1.02667,0.66667 2.75667,1.24333 5.19,1.73c2.44,0.48667 4.49667,1.03333 6.17,1.64v0c5.16667,1.9 7.75,5.18333 7.75,9.85v0c0,3.34667 -1.43333,6.05 -4.3,8.11c-2.86667,2.06667 -6.57,3.1 -11.11,3.1v0c-3.06667,0 -5.79,-0.54667 -8.17,-1.64c-2.38,-1.09333 -4.24667,-2.59333 -5.6,-4.5c-1.35333,-1.90667 -2.03,-3.96667 -2.03,-6.18v0h9.27c0.09333,1.73333 0.73667,3.06333 1.93,3.99c1.2,0.92667 2.80333,1.39 4.81,1.39v0c1.87333,0 3.29,-0.35667 4.25,-1.07c0.96,-0.70667 1.44,-1.63667 1.44,-2.79z"></path></g></g></svg>